<svg xmlns="http://www.w3.org/2000/svg" xmlns:xlink="http://www.w3.org/1999/xlink" width="500" zoomAndPan="magnify" viewBox="0 0 375 374.999991" height="500" preserveAspectRatio="xMidYMid meet" version="1.0"><defs><g/><clipPath id="204fa9d5a4"><path d="M 84.335938 109.699219 L 287.585938 109.699219 L 287.585938 197 L 84.335938 197 Z M 84.335938 109.699219 " clip-rule="nonzero"/></clipPath><clipPath id="2b579fc02a"><path d="M 172 186 L 184 186 L 184 197.449219 L 172 197.449219 Z M 172 186 " clip-rule="nonzero"/></clipPath><clipPath id="0785ecf883"><path d="M 186 186 L 198 186 L 198 197.449219 L 186 197.449219 Z M 186 186 " clip-rule="nonzero"/></clipPath><clipPath id="cd9c4c8acd"><path d="M 195.390625 205.433594 L 209.640625 205.433594 L 209.640625 221.933594 L 195.390625 221.933594 Z M 195.390625 205.433594 " clip-rule="nonzero"/></clipPath></defs><g clip-path="url(#204fa9d5a4)"><path fill="#ffffff" d="M 117.617188 196.332031 L 115.945312 194.660156 L 182.972656 127.632812 L 168.738281 113.398438 L 86.203125 195.929688 L 84.53125 194.257812 L 168.738281 110.054688 L 184.644531 125.960938 L 200.90625 109.699219 L 287.035156 195.828125 L 251.167969 195.828125 L 184.644531 129.304688 Z M 252.128906 193.445312 L 281.261719 193.445312 L 200.90625 113.042969 L 186.316406 127.632812 Z M 252.128906 193.445312 " fill-opacity="1" fill-rule="nonzero"/></g><g clip-path="url(#2b579fc02a)"><path fill="#ffffff" d="M 183.378906 197.449219 L 172.082031 197.449219 L 172.082031 186.152344 L 183.378906 186.152344 Z M 174.460938 195.066406 L 180.996094 195.066406 L 180.996094 188.53125 L 174.460938 188.53125 Z M 174.460938 195.066406 " fill-opacity="1" fill-rule="nonzero"/></g><g clip-path="url(#0785ecf883)"><path fill="#ffffff" d="M 197.460938 197.449219 L 186.113281 197.449219 L 186.113281 186.152344 L 197.460938 186.152344 Z M 188.496094 195.066406 L 195.082031 195.066406 L 195.082031 188.53125 L 188.496094 188.53125 Z M 188.496094 195.066406 " fill-opacity="1" fill-rule="nonzero"/></g><path fill="#ffffff" d="M 183.378906 183.3125 L 172.082031 183.3125 L 172.082031 171.964844 L 183.378906 171.964844 Z M 174.460938 180.933594 L 180.996094 180.933594 L 180.996094 174.347656 L 174.460938 174.347656 Z M 174.460938 180.933594 " fill-opacity="1" fill-rule="nonzero"/><path fill="#ffffff" d="M 197.460938 183.3125 L 186.113281 183.3125 L 186.113281 171.964844 L 197.460938 171.964844 Z M 188.496094 180.933594 L 195.082031 180.933594 L 195.082031 174.347656 L 188.496094 174.347656 Z M 188.496094 180.933594 " fill-opacity="1" fill-rule="nonzero"/><g fill="#ffffff" fill-opacity="1"><g transform="translate(83.965542, 222.542299)"><g><path d="M 12.347656 -10.011719 C 13.351562 -10.910156 14.054688 -12.183594 14.054688 -13.566406 C 14.054688 -16.523438 11.886719 -18.996094 8.25 -18.996094 L 1.492188 -18.996094 L 1.492188 0 L 8.738281 0 C 12.917969 0 15.085938 -2.496094 15.085938 -5.808594 C 15.085938 -7.789062 14.027344 -9.199219 12.347656 -10.011719 Z M 8.332031 -15.519531 C 9.742188 -15.519531 10.367188 -14.625 10.367188 -13.566406 C 10.367188 -12.535156 9.742188 -11.613281 8.332031 -11.613281 L 5.101562 -11.613281 L 5.101562 -15.519531 Z M 8.738281 -3.445312 L 5.101562 -3.445312 L 5.101562 -8.167969 L 8.738281 -8.167969 C 10.417969 -8.167969 11.316406 -7.164062 11.316406 -5.808594 C 11.316406 -4.449219 10.417969 -3.445312 8.738281 -3.445312 Z M 8.738281 -3.445312 "/></g></g></g><g fill="#ffffff" fill-opacity="1"><g transform="translate(110.907226, 222.542299)"><g><path d="M 10.039062 -19.15625 C 4.585938 -19.15625 0.8125 -14.925781 0.8125 -9.46875 C 0.8125 -4.015625 4.585938 0.21875 10.039062 0.21875 C 15.492188 0.21875 19.238281 -4.015625 19.238281 -9.46875 C 19.238281 -14.925781 15.492188 -19.15625 10.039062 -19.15625 Z M 10.039062 -3.417969 C 6.566406 -3.417969 4.503906 -6.023438 4.503906 -9.46875 C 4.503906 -12.945312 6.566406 -15.546875 10.039062 -15.546875 C 13.484375 -15.546875 15.546875 -12.945312 15.546875 -9.46875 C 15.546875 -6.023438 13.484375 -3.417969 10.039062 -3.417969 Z M 10.039062 -3.417969 "/></g></g></g><g fill="#ffffff" fill-opacity="1"><g transform="translate(141.999638, 222.542299)"><g><path d="M 10.039062 -19.15625 C 4.585938 -19.15625 0.8125 -14.925781 0.8125 -9.46875 C 0.8125 -4.015625 4.585938 0.21875 10.039062 0.21875 C 15.492188 0.21875 19.238281 -4.015625 19.238281 -9.46875 C 19.238281 -14.925781 15.492188 -19.15625 10.039062 -19.15625 Z M 10.039062 -3.417969 C 6.566406 -3.417969 4.503906 -6.023438 4.503906 -9.46875 C 4.503906 -12.945312 6.566406 -15.546875 10.039062 -15.546875 C 13.484375 -15.546875 15.546875 -12.945312 15.546875 -9.46875 C 15.546875 -6.023438 13.484375 -3.417969 10.039062 -3.417969 Z M 10.039062 -3.417969 "/></g></g></g><g fill="#ffffff" fill-opacity="1"><g transform="translate(173.092049, 222.542299)"><g><path d="M 5.101562 -3.445312 L 5.101562 -18.996094 L 1.492188 -18.996094 L 1.492188 0 L 12.890625 0 L 12.890625 -3.445312 Z M 5.101562 -3.445312 "/></g></g></g><g fill="#ffffff" fill-opacity="1"><g transform="translate(197.836285, 222.542299)"><g/></g></g><g fill="#ffffff" fill-opacity="1"><g transform="translate(215.933936, 222.542299)"><g><path d="M 12.347656 -10.011719 C 13.351562 -10.910156 14.054688 -12.183594 14.054688 -13.566406 C 14.054688 -16.523438 11.886719 -18.996094 8.25 -18.996094 L 1.492188 -18.996094 L 1.492188 0 L 8.738281 0 C 12.917969 0 15.085938 -2.496094 15.085938 -5.808594 C 15.085938 -7.789062 14.027344 -9.199219 12.347656 -10.011719 Z M 8.332031 -15.519531 C 9.742188 -15.519531 10.367188 -14.625 10.367188 -13.566406 C 10.367188 -12.535156 9.742188 -11.613281 8.332031 -11.613281 L 5.101562 -11.613281 L 5.101562 -15.519531 Z M 8.738281 -3.445312 L 5.101562 -3.445312 L 5.101562 -8.167969 L 8.738281 -8.167969 C 10.417969 -8.167969 11.316406 -7.164062 11.316406 -5.808594 C 11.316406 -4.449219 10.417969 -3.445312 8.738281 -3.445312 Z M 8.738281 -3.445312 "/></g></g></g><g fill="#ffffff" fill-opacity="1"><g transform="translate(242.875626, 222.542299)"><g><path d="M 12.671875 -18.996094 L 12.671875 -6.675781 L 5.019531 -18.996094 L 1.492188 -18.996094 L 1.492188 0 L 5.101562 0 L 5.101562 -12.320312 L 12.726562 0 L 16.28125 0 L 16.28125 -18.996094 Z M 12.671875 -18.996094 "/></g></g></g><g fill="#ffffff" fill-opacity="1"><g transform="translate(271.689193, 222.542299)"><g><path d="M 12.347656 -10.011719 C 13.351562 -10.910156 14.054688 -12.183594 14.054688 -13.566406 C 14.054688 -16.523438 11.886719 -18.996094 8.25 -18.996094 L 1.492188 -18.996094 L 1.492188 0 L 8.738281 0 C 12.917969 0 15.085938 -2.496094 15.085938 -5.808594 C 15.085938 -7.789062 14.027344 -9.199219 12.347656 -10.011719 Z M 8.332031 -15.519531 C 9.742188 -15.519531 10.367188 -14.625 10.367188 -13.566406 C 10.367188 -12.535156 9.742188 -11.613281 8.332031 -11.613281 L 5.101562 -11.613281 L 5.101562 -15.519531 Z M 8.738281 -3.445312 L 5.101562 -3.445312 L 5.101562 -8.167969 L 8.738281 -8.167969 C 10.417969 -8.167969 11.316406 -7.164062 11.316406 -5.808594 C 11.316406 -4.449219 10.417969 -3.445312 8.738281 -3.445312 Z M 8.738281 -3.445312 "/></g></g></g><g clip-path="url(#cd9c4c8acd)"><path fill="#ffffff" d="M 202.394531 205.433594 C 198.539062 205.433594 195.410156 208.558594 195.410156 212.417969 C 195.410156 214.34375 196.191406 216.089844 197.457031 217.355469 L 202.394531 222.191406 L 207.332031 217.351562 C 208.597656 216.089844 209.378906 214.34375 209.375 212.417969 C 209.375 208.5625 206.25 205.433594 202.394531 205.433594 Z M 206.347656 216.363281 L 202.394531 220.238281 L 198.433594 216.355469 C 197.390625 215.3125 196.808594 213.910156 196.808594 212.417969 C 196.808594 209.335938 199.3125 206.832031 202.394531 206.832031 C 203.886719 206.832031 205.289062 207.414062 206.34375 208.46875 C 207.398438 209.523438 207.980469 210.925781 207.980469 212.417969 C 207.980469 213.910156 207.402344 215.308594 206.347656 216.363281 Z M 206.347656 216.363281 " fill-opacity="1" fill-rule="nonzero"/></g><path fill="#ffffff" d="M 202.394531 208.925781 L 198.902344 212.417969 L 199.949219 212.417969 L 199.949219 215.210938 L 201.695312 215.210938 L 201.695312 213.117188 L 203.09375 213.117188 L 203.09375 215.210938 L 204.839844 215.210938 L 204.839844 212.417969 L 205.886719 212.417969 Z M 202.394531 208.925781 " fill-opacity="1" fill-rule="nonzero"/><g fill="#ffffff" fill-opacity="1"><g transform="translate(85.574485, 245.891381)"><g><path d="M 9.226562 -10.265625 L 9.226562 -12.5625 L 0.988281 -12.5625 L 0.988281 0 L 3.375 0 L 3.375 -5.132812 L 8.023438 -5.132812 L 8.023438 -7.414062 L 3.375 -7.414062 L 3.375 -10.265625 Z M 9.226562 -10.265625 "/></g></g></g><g fill="#ffffff" fill-opacity="1"><g transform="translate(97.991848, 245.891381)"><g><path d="M 1.882812 -9.851562 C 2.621094 -9.851562 3.210938 -10.445312 3.210938 -11.179688 C 3.210938 -11.933594 2.621094 -12.527344 1.882812 -12.527344 C 1.128906 -12.527344 0.539062 -11.933594 0.539062 -11.179688 C 0.539062 -10.445312 1.128906 -9.851562 1.882812 -9.851562 Z M 0.683594 0 L 3.070312 0 L 3.070312 -8.652344 L 0.683594 -8.652344 Z M 0.683594 0 "/></g></g></g><g fill="#ffffff" fill-opacity="1"><g transform="translate(104.578228, 245.891381)"><g><path d="M 5.023438 -8.777344 C 4.21875 -8.777344 3.535156 -8.433594 3.015625 -7.898438 L 3.015625 -8.652344 L 0.628906 -8.652344 L 0.628906 0 L 3.015625 0 L 3.015625 -4.703125 C 3.015625 -5.976562 3.589844 -6.550781 4.449219 -6.550781 C 5.3125 -6.550781 5.832031 -6.046875 5.832031 -4.792969 L 5.832031 0 L 8.21875 0 L 8.21875 -4.703125 C 8.21875 -7.359375 7 -8.777344 5.023438 -8.777344 Z M 5.023438 -8.777344 "/></g></g></g><g fill="#ffffff" fill-opacity="1"><g transform="translate(116.170277, 245.891381)"><g><path d="M 6.605469 -12.5625 L 6.605469 -7.898438 C 5.996094 -8.433594 5.222656 -8.777344 4.289062 -8.777344 C 1.792969 -8.777344 0.179688 -6.820312 0.179688 -4.324219 C 0.179688 -1.832031 1.792969 0.144531 4.289062 0.144531 C 5.222656 0.144531 5.996094 -0.199219 6.605469 -0.734375 L 6.605469 0 L 8.992188 0 L 8.992188 -12.5625 Z M 4.558594 -2.046875 C 3.265625 -2.046875 2.511719 -3.03125 2.511719 -4.324219 C 2.511719 -5.617188 3.265625 -6.605469 4.558594 -6.605469 C 5.851562 -6.605469 6.605469 -5.617188 6.605469 -4.324219 C 6.605469 -3.03125 5.851562 -2.046875 4.558594 -2.046875 Z M 4.558594 -2.046875 "/></g></g></g><g fill="#ffffff" fill-opacity="1"><g transform="translate(128.53542, 245.891381)"><g/></g></g><g fill="#ffffff" fill-opacity="1"><g transform="translate(135.677983, 245.891381)"><g/></g></g><g fill="#ffffff" fill-opacity="1"><g transform="translate(142.820545, 245.891381)"><g/></g></g><g fill="#ffffff" fill-opacity="1"><g transform="translate(149.963107, 245.891381)"><g/></g></g><g fill="#ffffff" fill-opacity="1"><g transform="translate(161.815703, 245.345931)"><g><path d="M 3.375 -2.28125 L 3.375 -5.132812 L 8.667969 -5.132812 L 8.667969 -7.414062 L 3.375 -7.414062 L 3.375 -10.265625 L 9.226562 -10.265625 L 9.226562 -12.5625 L 0.988281 -12.5625 L 0.988281 0 L 9.332031 0 L 9.332031 -2.28125 Z M 3.375 -2.28125 "/></g></g></g><g fill="#ffffff" fill-opacity="1"><g transform="translate(174.340708, 245.345931)"><g><path d="M 5.023438 -8.777344 C 4.21875 -8.777344 3.535156 -8.433594 3.015625 -7.898438 L 3.015625 -8.652344 L 0.628906 -8.652344 L 0.628906 0 L 3.015625 0 L 3.015625 -4.703125 C 3.015625 -5.976562 3.589844 -6.550781 4.449219 -6.550781 C 5.3125 -6.550781 5.832031 -6.046875 5.832031 -4.792969 L 5.832031 0 L 8.21875 0 L 8.21875 -4.703125 C 8.21875 -7.359375 7 -8.777344 5.023438 -8.777344 Z M 5.023438 -8.777344 "/></g></g></g><g fill="#ffffff" fill-opacity="1"><g transform="translate(185.932757, 245.345931)"><g><path d="M 1.902344 -9.851562 C 2.636719 -9.851562 3.25 -10.445312 3.25 -11.179688 C 3.25 -11.933594 2.636719 -12.527344 1.902344 -12.527344 C 1.167969 -12.527344 0.574219 -11.933594 0.574219 -11.179688 C 0.574219 -10.445312 1.167969 -9.851562 1.902344 -9.851562 Z M 0.71875 0.160156 C 0.71875 1.542969 0.125 1.777344 -0.375 1.777344 C -0.59375 1.777344 -0.773438 1.722656 -0.933594 1.667969 L -1.617188 3.609375 C -1.113281 3.875 -0.539062 4.054688 0.0351562 4.054688 C 2.191406 4.054688 3.105469 2.675781 3.105469 0.109375 L 3.105469 -8.652344 L 0.71875 -8.652344 Z M 0.71875 0.160156 "/></g></g></g><g fill="#ffffff" fill-opacity="1"><g transform="translate(192.375606, 245.345931)"><g><path d="M 4.648438 -8.777344 C 2.152344 -8.777344 0.269531 -6.820312 0.269531 -4.324219 C 0.269531 -1.832031 2.152344 0.144531 4.648438 0.144531 C 7.144531 0.144531 9.027344 -1.832031 9.027344 -4.324219 C 9.027344 -6.820312 7.144531 -8.777344 4.648438 -8.777344 Z M 4.648438 -2.046875 C 3.355469 -2.046875 2.601562 -3.03125 2.601562 -4.324219 C 2.601562 -5.617188 3.355469 -6.605469 4.648438 -6.605469 C 5.941406 -6.605469 6.695312 -5.617188 6.695312 -4.324219 C 6.695312 -3.03125 5.941406 -2.046875 4.648438 -2.046875 Z M 4.648438 -2.046875 "/></g></g></g><g fill="#ffffff" fill-opacity="1"><g transform="translate(204.416195, 245.345931)"><g><path d="M 8.5625 -8.652344 L 6.121094 -8.652344 L 4.289062 -3.285156 L 2.457031 -8.652344 L 0 -8.652344 L 3.105469 -0.144531 C 2.441406 1.5625 1.757812 1.507812 1.003906 1.382812 L 0.628906 3.589844 C 3.570312 4.003906 4.523438 2.261719 5.472656 -0.179688 C 6.011719 -1.527344 8.5625 -8.652344 8.5625 -8.652344 Z M 8.5625 -8.652344 "/></g></g></g><g fill="#ffffff" fill-opacity="1"><g transform="translate(236.007104, 245.345931)"><g><path d="M 5.671875 -7.554688 C 3.695312 -8.167969 3.230469 -8.542969 3.230469 -9.136719 C 3.230469 -9.960938 4.144531 -10.320312 5.152344 -10.300781 C 6.066406 -10.285156 7.089844 -9.851562 7.25 -9.0625 L 9.367188 -9.851562 C 9.007812 -11.648438 7.054688 -12.671875 5.132812 -12.671875 C 1.902344 -12.671875 0.699219 -10.695312 0.699219 -9.046875 C 0.699219 -7.195312 1.882812 -6.101562 4.773438 -5.242188 C 6.820312 -4.628906 7.429688 -4.308594 7.429688 -3.554688 C 7.429688 -2.78125 6.640625 -2.207031 5.1875 -2.207031 C 3.875 -2.207031 2.78125 -2.800781 2.546875 -3.75 L 0.359375 -2.90625 C 0.71875 -1.09375 2.945312 0.214844 5.402344 0.214844 C 8.523438 0.214844 9.980469 -1.5625 9.980469 -3.644531 C 9.980469 -5.976562 8.148438 -6.800781 5.671875 -7.554688 Z M 5.671875 -7.554688 "/></g></g></g><g fill="#ffffff" fill-opacity="1"><g transform="translate(248.908884, 245.345931)"><g><path d="M 4.9375 -8.777344 C 4.128906 -8.777344 3.445312 -8.433594 2.925781 -7.898438 L 2.925781 -12.5625 L 0.539062 -12.5625 L 0.539062 0 L 2.925781 0 L 2.925781 -4.703125 C 2.925781 -5.976562 3.519531 -6.550781 4.359375 -6.550781 C 5.222656 -6.550781 5.761719 -6.046875 5.761719 -4.792969 L 5.761719 0 L 8.148438 0 L 8.148438 -4.703125 C 8.148438 -7.359375 6.929688 -8.777344 4.9375 -8.777344 Z M 4.9375 -8.777344 "/></g></g></g><g fill="#ffffff" fill-opacity="1"><g transform="translate(260.429167, 245.345931)"><g><path d="M 4.359375 -8.777344 C 2.207031 -8.777344 0.933594 -7.359375 0.773438 -6.226562 L 2.765625 -5.796875 C 2.90625 -6.460938 3.464844 -6.800781 4.199219 -6.820312 C 5.042969 -6.855469 5.601562 -6.316406 5.472656 -5.796875 C 5.367188 -5.3125 4.757812 -5.3125 3.300781 -4.988281 C 1.472656 -4.59375 0.179688 -3.929688 0.179688 -2.046875 C 0.25 -0.734375 1.183594 0.144531 2.871094 0.144531 C 4.34375 0.144531 5.203125 -0.484375 5.527344 -0.808594 L 5.527344 0 L 7.898438 0 L 7.898438 -5.402344 C 7.898438 -7.914062 6.246094 -8.777344 4.359375 -8.777344 Z M 5.527344 -3.535156 C 5.457031 -2.585938 4.792969 -1.847656 3.859375 -1.703125 C 3.320312 -1.617188 2.78125 -1.722656 2.636719 -2.117188 C 2.476562 -2.546875 2.726562 -3.121094 3.609375 -3.355469 C 4.738281 -3.644531 5.527344 -3.804688 5.527344 -3.804688 Z M 5.527344 -3.535156 "/></g></g></g><g fill="#ffffff" fill-opacity="1"><g transform="translate(271.698275, 245.345931)"><g><path d="M 4.9375 -8.777344 C 4.128906 -8.777344 3.445312 -8.433594 2.925781 -7.898438 L 2.925781 -8.652344 L 0.539062 -8.652344 L 0.539062 0 L 2.925781 0 L 2.925781 -4.703125 C 2.925781 -5.976562 3.519531 -6.550781 4.359375 -6.550781 C 4.683594 -6.550781 4.953125 -6.480469 5.167969 -6.335938 L 5.617188 -8.722656 C 5.402344 -8.757812 5.167969 -8.777344 4.9375 -8.777344 Z M 4.9375 -8.777344 "/></g></g></g><g fill="#ffffff" fill-opacity="1"><g transform="translate(279.971148, 245.345931)"><g><path d="M 8.398438 -3.464844 C 8.453125 -3.734375 8.472656 -4.019531 8.472656 -4.324219 C 8.472656 -6.820312 6.945312 -8.777344 4.46875 -8.777344 C 1.972656 -8.777344 0.179688 -6.820312 0.179688 -4.324219 C 0.179688 -1.832031 2.0625 0.144531 4.558594 0.144531 C 6.136719 0.144531 7.414062 -0.644531 8.128906 -1.847656 L 6.15625 -2.816406 C 5.816406 -2.332031 5.257812 -2.046875 4.558594 -2.046875 C 3.570312 -2.046875 2.90625 -2.621094 2.636719 -3.464844 Z M 4.46875 -6.605469 C 5.472656 -6.605469 6.011719 -5.996094 6.210938 -5.132812 L 2.621094 -5.132812 C 2.835938 -5.996094 3.464844 -6.605469 4.46875 -6.605469 Z M 4.46875 -6.605469 "/></g></g></g></svg>