<?xml version="1.0" standalone="no"?>
<!DOCTYPE svg PUBLIC "-//W3C//DTD SVG 20010904//EN"
 "http://www.w3.org/TR/2001/REC-SVG-20010904/DTD/svg10.dtd">
<svg version="1.0" xmlns="http://www.w3.org/2000/svg"
 width="500.000000pt" height="500.000000pt" viewBox="0 0 500.000000 500.000000"
 preserveAspectRatio="xMidYMid meet">

<g transform="translate(0.000000,500.000000) scale(0.100000,-0.100000)"
fill="#000000" stroke="none">
<path d="M1125 3270 c-968 -968 -969 -969 -950 -990 l19 -21 951 951 950 950
165 -165 165 -165 -773 -773 c-735 -735 -771 -773 -755 -790 17 -16 55 20 790
755 l773 773 768 -768 767 -767 415 0 415 0 -992 992 -993 993 -188 -188 -187
-187 -185 185 -185 185 -970 -970z m2640 -30 l920 -920 -335 0 -335 0 -757
757 -758 758 162 162 c90 90 167 163 173 163 5 0 424 -414 930 -920z"/>
<path d="M2170 2680 l0 -130 130 0 130 0 0 130 0 130 -130 0 -130 0 0 -130z
m210 0 l0 -70 -75 0 -75 0 0 70 0 70 75 0 75 0 0 -70z"/>
<path d="M2500 2680 l0 -130 130 0 130 0 0 130 0 130 -130 0 -130 0 0 -130z
m200 0 l0 -70 -75 0 -75 0 0 70 0 70 75 0 75 0 0 -70z"/>
<path d="M2170 2355 l0 -125 130 0 130 0 0 125 0 125 -130 0 -130 0 0 -125z
m210 0 l0 -75 -75 0 -75 0 0 75 0 75 75 0 75 0 0 -75z"/>
<path d="M2500 2355 l0 -125 130 0 130 0 0 125 0 125 -130 0 -130 0 0 -125z
m200 0 l0 -75 -75 0 -75 0 0 75 0 75 75 0 75 0 0 -75z"/>
<path d="M180 1870 l0 -220 103 0 c120 0 162 16 189 70 26 52 23 94 -10 131
l-28 32 18 36 c20 39 17 78 -9 118 -23 35 -84 53 -178 53 l-85 0 0 -220z m181
130 c21 -12 25 -50 7 -68 -7 -7 -34 -12 -60 -12 l-48 0 0 45 0 45 41 0 c22 0
49 -5 60 -10z m17 -176 c12 -8 22 -26 22 -39 0 -39 -25 -55 -86 -55 l-54 0 0
55 0 55 48 0 c27 0 57 -7 70 -16z"/>
<path d="M910 2075 c-142 -64 -173 -266 -56 -373 49 -46 88 -57 172 -50 184
15 243 292 86 402 -52 37 -145 46 -202 21z m156 -90 c55 -36 71 -137 31 -196
-27 -41 -60 -59 -107 -58 -73 0 -120 53 -120 134 0 62 15 93 60 123 40 27 92
26 136 -3z"/>
<path d="M1625 2071 c-113 -51 -158 -192 -99 -310 37 -73 86 -104 173 -109 83
-4 142 23 185 85 24 34 30 55 33 115 4 66 2 78 -24 128 -23 44 -39 60 -82 82
-63 33 -127 36 -186 9z m141 -76 c64 -26 92 -135 53 -207 -27 -51 -112 -72
-169 -43 -87 45 -84 206 4 249 39 20 68 20 112 1z"/>
<path d="M2230 1870 l0 -220 130 0 130 0 0 40 0 40 -90 0 -90 0 0 180 0 180
-40 0 -40 0 0 -220z"/>
<path d="M3220 1870 l0 -220 103 0 c120 0 162 16 189 70 26 52 23 94 -10 131
l-28 32 18 36 c20 39 17 78 -9 118 -23 35 -84 53 -178 53 l-85 0 0 -220z m181
130 c21 -12 25 -50 7 -68 -7 -7 -34 -12 -60 -12 l-48 0 0 45 0 45 41 0 c22 0
49 -5 60 -10z m17 -176 c12 -8 22 -26 22 -39 0 -39 -25 -55 -86 -55 l-54 0 0
55 0 55 48 0 c27 0 57 -7 70 -16z"/>
<path d="M3840 1870 l0 -220 40 0 39 0 3 140 3 140 85 -137 85 -138 43 -3 42
-3 0 220 0 221 -40 0 -39 0 -3 -141 -3 -142 -88 142 -88 141 -40 0 -39 0 0
-220z"/>
<path d="M4500 1870 l0 -220 100 0 c112 0 155 12 188 55 32 41 31 117 -3 151
-24 24 -24 27 -10 54 20 40 19 79 -5 118 -29 47 -73 62 -180 62 l-90 0 0 -220z
m179 130 c25 -13 33 -37 21 -61 -9 -15 -22 -19 -65 -19 l-55 0 0 38 c0 21 3
42 7 45 10 10 72 8 92 -3z m31 -180 c24 -24 25 -38 4 -68 -13 -19 -24 -22 -75
-22 l-59 0 0 48 c0 27 3 52 7 55 3 4 28 7 55 7 35 0 54 -6 68 -20z"/>
<path d="M2810 2029 c-35 -15 -59 -39 -81 -81 -39 -77 -20 -135 75 -234 l66
-69 65 70 c70 75 95 117 95 162 -1 43 -34 108 -70 133 -37 26 -111 36 -150 19z
m130 -47 c14 -10 33 -35 43 -55 29 -57 15 -100 -54 -172 l-58 -60 -55 55 c-81
79 -94 141 -44 206 43 54 114 65 168 26z"/>
<path d="M2834 1918 c-25 -28 -29 -39 -25 -68 7 -43 41 -56 41 -16 0 19 5 26
20 26 15 0 20 -7 20 -26 0 -42 33 -27 41 18 5 33 2 41 -26 68 -17 16 -33 30
-36 30 -3 0 -19 -15 -35 -32z"/>
<path d="M1960 1265 l0 -145 95 0 c95 0 95 0 95 25 0 24 -2 25 -70 25 l-70 0
0 35 0 35 60 0 c57 0 60 1 60 25 0 24 -3 25 -61 25 l-60 0 3 33 3 32 68 3 c64
3 67 4 67 27 0 25 -1 25 -95 25 l-95 0 0 -145z"/>
<path d="M2514 1395 c-9 -23 3 -45 25 -45 23 0 35 28 20 46 -15 18 -38 18 -45
-1z"/>
<path d="M3689 1381 c-53 -53 -31 -104 58 -137 66 -24 79 -37 58 -58 -20 -20
-55 -21 -81 -1 -25 19 -53 19 -61 -1 -20 -52 125 -88 180 -44 21 17 27 30 27
59 0 45 -15 60 -93 95 -59 26 -67 40 -34 60 13 8 25 7 47 -6 23 -13 70 -15 70
-3 0 33 -52 65 -105 65 -27 0 -44 -8 -66 -29z"/>
<path d="M3957 1403 c-4 -3 -7 -69 -7 -145 l0 -138 30 0 c29 0 29 0 32 66 2
50 7 70 20 78 28 17 42 -7 46 -79 4 -61 6 -65 28 -65 23 0 24 3 24 74 0 60 -4
78 -22 101 -18 23 -26 26 -60 22 l-38 -5 0 49 c0 45 -2 49 -23 49 -13 0 -27
-3 -30 -7z"/>
<path d="M200 1255 l0 -145 30 0 30 0 0 60 0 60 50 0 c47 0 50 2 50 25 0 23
-3 25 -50 25 l-50 0 0 35 0 35 65 0 c63 0 65 1 65 25 0 25 0 25 -95 25 l-95 0
0 -145z"/>
<path d="M484 1385 c-9 -23 3 -45 26 -45 25 0 37 25 20 45 -16 19 -39 19 -46
0z"/>
<path d="M1040 1351 l0 -49 -45 5 c-39 5 -47 2 -75 -25 -40 -40 -42 -97 -4
-141 24 -29 28 -30 100 -29 l74 1 0 143 0 144 -25 0 c-23 0 -25 -3 -25 -49z
m-24 -99 c18 -12 24 -41 14 -67 -14 -36 -66 -36 -80 0 -15 39 5 75 40 75 8 0
20 -4 26 -8z"/>
<path d="M2240 1219 c0 -99 0 -99 25 -99 23 0 25 3 25 49 0 64 14 101 39 101
25 0 31 -19 31 -91 0 -56 1 -59 25 -59 25 0 25 1 25 80 0 105 -12 119 -104
118 l-66 0 0 -99z"/>
<path d="M2510 1205 c0 -101 -2 -116 -17 -122 -44 -16 -44 -53 0 -53 59 0 67
19 67 163 l0 127 -25 0 -25 0 0 -115z"/>
<path d="M2679 1291 c-63 -63 -20 -171 68 -171 49 0 78 21 93 65 34 103 -85
181 -161 106z m99 -33 c7 -7 12 -24 12 -38 0 -52 -61 -71 -82 -25 -23 51 32
101 70 63z"/>
<path d="M2920 1316 c0 -2 16 -47 35 -101 27 -75 33 -101 24 -111 -6 -8 -17
-14 -24 -14 -7 0 -15 -11 -17 -25 -5 -22 -2 -25 22 -25 15 0 36 10 48 23 19
20 102 223 102 249 0 5 -12 8 -27 6 -23 -3 -29 -12 -47 -63 l-20 -60 -20 63
c-18 57 -22 62 -48 62 -15 0 -28 -2 -28 -4z"/>
<path d="M4252 1297 c-12 -13 -22 -26 -22 -30 0 -11 39 -8 60 5 16 10 23 10
37 -4 18 -19 17 -20 -46 -36 -19 -4 -43 -20 -54 -34 -19 -25 -19 -28 -4 -52
16 -23 22 -25 92 -24 l75 1 0 78 c0 66 -3 82 -20 99 -29 29 -90 27 -118 -3z
m88 -96 c0 -16 -31 -41 -51 -41 -31 0 -22 29 14 39 17 5 33 10 35 10 1 1 2 -3
2 -8z"/>
<path d="M4480 1219 c0 -99 0 -99 25 -99 23 0 25 3 25 49 0 64 14 101 39 101
12 0 20 9 23 24 5 23 3 24 -54 24 l-58 0 0 -99z"/>
<path d="M4714 1308 c-29 -14 -48 -52 -47 -94 2 -78 96 -123 154 -74 21 17 22
21 9 29 -8 6 -31 8 -50 5 -26 -4 -40 -1 -49 10 -12 14 -7 16 53 16 l66 0 0 35
c0 68 -70 105 -136 73z m84 -55 c2 -9 -9 -13 -38 -13 -37 0 -41 2 -30 16 15
17 61 15 68 -3z"/>
<path d="M480 1210 l0 -100 30 0 30 0 0 100 0 100 -30 0 -30 0 0 -100z"/>
<path d="M630 1209 l0 -99 30 0 29 0 3 73 c3 69 4 72 28 72 24 0 25 -3 28 -72
l3 -73 31 0 31 0 -5 80 c-6 107 -17 118 -109 118 l-69 0 0 -99z"/>
</g>
</svg>
